<?xml version="1.0" encoding="utf-8"?>
<!-- Generator: Adobe Illustrator 25.2.3, SVG Export Plug-In . SVG Version: 6.00 Build 0)  -->
<svg version="1.1" xmlns="http://www.w3.org/2000/svg" xmlns:xlink="http://www.w3.org/1999/xlink" x="0px" y="0px"
	 viewBox="0 0 500 500" style="enable-background:new 0 0 500 500;" xml:space="preserve">
<style type="text/css">
	.st0{fill:#FCFC03;}
	.st1{fill:#0000FF;}
	.st2{fill:#FFFFFF;}
	.st3{fill:#0000FF;stroke:#FFFFFF;stroke-width:3;stroke-miterlimit:10;}
	.st4{display:none;}
	.st5{display:inline;fill:none;stroke:#FFFFFF;stroke-width:2;stroke-miterlimit:10;}
	.st6{font-family:'CenturyGothicPro-Bold';}
	.st7{font-size:58.6683px;}
	.st8{letter-spacing:1;}
	.st9{fill:none;stroke:#FFFFFF;stroke-width:2;stroke-miterlimit:10;}
</style>
<g id="canvas">
	<g>
		<rect class="st0" width="499" height="499"/>
	</g>
</g>
<g id="circle">
	<g>
		<path class="st1" d="M254.51,465.04c-57.43,0-111.42-22.36-152.03-62.97c-40.61-40.61-62.97-94.6-62.97-152.03
			s22.36-111.42,62.97-152.03c40.61-40.61,94.6-62.97,152.03-62.97S365.93,57.4,406.54,98.01c40.61,40.61,62.97,94.6,62.97,152.03
			s-22.36,111.42-62.97,152.03C365.93,442.67,311.94,465.04,254.51,465.04z"/>
		<path class="st2" d="M254.51,39.04c28.49,0,56.12,5.58,82.13,16.58c25.12,10.63,47.69,25.84,67.07,45.22
			c19.38,19.38,34.6,41.95,45.22,67.07c11,26.01,16.58,53.64,16.58,82.13s-5.58,56.12-16.58,82.13
			c-10.63,25.12-25.84,47.69-45.22,67.07c-19.38,19.38-41.95,34.6-67.07,45.22c-26.01,11-53.64,16.58-82.13,16.58
			s-56.12-5.58-82.13-16.58c-25.12-10.63-47.69-25.84-67.07-45.22c-19.38-19.38-34.6-41.95-45.22-67.07
			c-11-26.01-16.58-53.64-16.58-82.13s5.58-56.12,16.58-82.13c10.63-25.12,25.84-47.69,45.22-67.07s41.95-34.6,67.07-45.22
			C198.39,44.62,226.02,39.04,254.51,39.04 M254.51,31.04c-120.95,0-219,98.05-219,219s98.05,219,219,219s219-98.05,219-219
			S375.46,31.04,254.51,31.04L254.51,31.04z"/>
	</g>
</g>
<g id="_x33_circles">
	<g>
		<circle class="st3" cx="158" cy="318" r="22"/>
		<circle class="st3" cx="254" cy="318" r="22"/>
		<circle class="st3" cx="350" cy="314" r="22"/>
	</g>
</g>
<g id="text1" class="st4">
	<text transform="matrix(1 0 0 1 63.4885 268.3868)" class="st5 st6 st7 st8">creative WEB</text>
</g>
<g id="text2">
	<g>
		<path class="st9" d="M97.58,262.7c-3.34,4.34-8.04,6.51-14.14,6.51c-10.62,0-17.48-7.22-17.48-16.31c0-9.33,7.27-16.49,17.6-16.49
			c6.1,0,11.26,2.52,14.37,7.1l-6.51,3.58c-2.23-2.35-4.4-3.52-7.8-3.52c-5.98,0-9.8,4.05-9.8,9.45c0,5.28,3.7,9.04,9.45,9.04
			c3.46,0,6.22-1.17,8.15-3.58L97.58,262.7z"/>
		<path class="st9" d="M111.07,241.16c1.47-3.23,3.99-4.75,6.57-4.75c1.64,0,2.64,0.47,3.4,0.82l-2.41,6.69
			c-0.59-0.29-1.47-0.65-2.29-0.65c-2.23,0-3.99,2.58-4.17,7.16c-0.06,1.7-0.06,3.64-0.06,5.34v12.61h-7.8v-31.15h6.75V241.16z"/>
		<path class="st9" d="M154.84,262.34c-3.34,4.75-7.74,6.86-14.32,6.86c-9.92,0-16.31-7.28-16.31-16.43
			c0-8.51,6.16-16.37,16.19-16.37c9.86,0,16.54,7.04,16.54,16.9c0,0.7-0.06,1.06-0.06,1.76h-25.11c0.76,4.63,4.28,7.22,8.74,7.22
			c3.34,0,5.57-0.94,7.74-3.05L154.84,262.34z M149.09,248.91c-1.06-3.64-4.4-5.87-8.57-5.87c-3.87,0-6.86,1.94-8.39,5.87H149.09z"
			/>
		<path class="st9" d="M187.4,265.1c-2.76,2.7-5.69,4.11-9.62,4.11c-7.92,0-14.84-6.81-14.84-16.37c0-9.74,6.57-16.43,14.67-16.43
			c3.75,0,6.98,1.41,9.8,4.22v-3.4h7.8v31.15h-7.8V265.1z M170.79,252.78c0,5.34,3.52,9.27,8.39,9.27c4.81,0,8.57-3.64,8.57-9.33
			c0-5.46-3.64-9.15-8.57-9.15C174.02,243.57,170.79,247.68,170.79,252.78z"/>
		<path class="st9" d="M205.17,225.73h7.8v11.5h4.63v6.69h-4.63v24.47h-7.8v-24.47h-3.99v-6.69h3.99V225.73z"/>
		<path class="st9" d="M231.1,229.55c0,2.76-2.23,4.99-4.99,4.99c-2.88,0-4.99-2.52-4.99-5.4c0-2.7,2.29-4.75,4.99-4.75
			C228.93,224.38,231.1,226.73,231.1,229.55z M222.24,237.23h7.8v31.15h-7.8V237.23z"/>
		<path class="st9" d="M234.92,237.23h7.98l7.86,18.36l7.86-18.36h7.92l-13.26,31.15h-5.04L234.92,237.23z"/>
		<path class="st9" d="M301.5,262.34c-3.34,4.75-7.74,6.86-14.32,6.86c-9.92,0-16.31-7.28-16.31-16.43
			c0-8.51,6.16-16.37,16.19-16.37c9.86,0,16.54,7.04,16.54,16.9c0,0.7-0.06,1.06-0.06,1.76h-25.11c0.76,4.63,4.28,7.22,8.74,7.22
			c3.34,0,5.57-0.94,7.74-3.05L301.5,262.34z M295.75,248.91c-1.06-3.64-4.4-5.87-8.57-5.87c-3.87,0-6.86,1.94-8.39,5.87H295.75z"/>
		<path class="st9" d="M326.26,226.26h7.92l6.04,26.87l7.57-26.87h6.69l7.63,26.87l5.98-26.87h7.92l-9.5,42.12h-7.69l-7.8-27.22
			l-7.57,27.22h-7.63L326.26,226.26z"/>
		<path class="st9" d="M383.52,226.26h23v7.86h-14.96v7.51h14.96v7.86h-14.96v11.03h14.96v7.86h-23V226.26z"/>
		<path class="st9" d="M415.14,268.39v-42.12h7.69c4.4,0,7.98,0.47,10.62,2.05c3.17,1.88,5.04,5.16,5.04,8.8
			c0,3.34-1.53,5.87-4.4,8.1c4.93,2.35,7.39,5.75,7.39,10.85c0,3.46-1.17,6.34-3.64,8.68c-2.82,2.76-5.87,3.64-10.15,3.64H415.14z
			 M423.18,233.89v8.86h1.76c3.75,0,5.69-1.64,5.69-4.58c0-2.7-1.82-4.28-5.4-4.28H423.18z M423.18,249.91v10.85h2.7
			c5.04,0,7.74-1.41,7.74-4.99c0-3.7-2.82-5.87-8.45-5.87H423.18z"/>
	</g>
</g>
<g id="line">
	<rect x="136" y="362" class="st2" width="236" height="1"/>
</g>
</svg>
