<?xml version="1.0" encoding="utf-8"?>
<!-- Generator: Adobe Illustrator 25.2.3, SVG Export Plug-In . SVG Version: 6.00 Build 0)  -->
<svg version="1.1" xmlns="http://www.w3.org/2000/svg" xmlns:xlink="http://www.w3.org/1999/xlink" x="0px" y="0px"
	 viewBox="0 0 500 500" style="enable-background:new 0 0 500 500;" xml:space="preserve">
<style type="text/css">
	.st0{fill:none;stroke:#B3B3B3;stroke-width:4;stroke-miterlimit:10;}
	.st1{display:none;}
	.st2{display:inline;fill:none;stroke:#000000;stroke-width:4;stroke-miterlimit:10;}
</style>
<g id="background">
	<g>
		<path d="M350.32,62.31l107.92,186.93L350.32,436.17H134.48L26.55,249.24L134.48,62.31H350.32 M350.9,61.31h-217L25.4,249.24
			l108.5,187.93h217l108.5-187.93L350.9,61.31L350.9,61.31z"/>
	</g>
	<g>
		<path d="M342.28,76.24l99.88,173l-99.88,173H142.52l-99.88-173l99.88-173H342.28 M342.86,75.24H141.94l-100.46,174l100.46,174
			h200.92l100.46-174L342.86,75.24L342.86,75.24z"/>
	</g>
	<g>
		<path d="M334.31,90.04l91.91,159.2l-91.91,159.2H150.49l-91.91-159.2l91.91-159.2H334.31 M334.89,89.04H149.91l-92.49,160.2
			l92.49,160.2h184.98l92.49-160.2L334.89,89.04L334.89,89.04z"/>
	</g>
	<g>
		<path d="M326.65,103.31l84.26,145.94l-84.26,145.94H158.14L73.89,249.24l84.26-145.94H326.65 M327.23,102.31H157.56L72.73,249.24
			l84.83,146.94h169.67l84.83-146.94L327.23,102.31L327.23,102.31z"/>
	</g>
	<g>
		<path d="M318.53,117.37l76.13,131.87l-76.13,131.87H166.26L90.13,249.24l76.13-131.87H318.53 M319.11,116.37H165.69L88.97,249.24
			l76.71,132.87h153.42l76.71-132.87L319.11,116.37L319.11,116.37z"/>
	</g>
	<g>
		<path d="M311.04,131.24l68.63,118l-68.63,118H173.76l-68.63-118l68.63-118H311.04 M311.61,130.24H173.18l-69.21,119l69.21,119
			h138.43l69.21-119L311.61,130.24L311.61,130.24z"/>
	</g>
	<g>
		<path d="M302.91,145.21l60.51,104.03l-60.51,104.03H181.88l-60.51-104.03l60.51-104.03H302.91 M303.49,144.21H181.31
			l-61.09,105.03l61.09,105.03h122.18l61.09-105.03L303.49,144.21L303.49,144.21z"/>
	</g>
	<g>
		<path d="M295.68,157.65l53.27,91.59l-53.27,91.59H189.12l-53.27-91.59l53.27-91.59H295.68 M296.25,156.65H188.54l-53.86,92.59
			l53.86,92.59h107.71l53.86-92.59L296.25,156.65L296.25,156.65z"/>
	</g>
	<g>
		<path d="M287.64,171.47l45.23,77.77l-45.23,77.77h-90.48l-45.23-77.77l45.23-77.77H287.64 M288.21,170.47h-91.63l-45.81,78.77
			l45.81,78.77h91.63l45.81-78.77L288.21,170.47L288.21,170.47z"/>
	</g>
	<g>
		<path d="M279.81,184.93l37.41,64.31l-37.41,64.31h-74.83l-37.41-64.31l37.41-64.31H279.81 M280.39,183.93h-75.98l-37.99,65.31
			l37.99,65.31h75.98l37.99-65.31L280.39,183.93L280.39,183.93z"/>
	</g>
	<g>
		<path d="M272.74,197.08l30.34,52.16l-30.34,52.16h-60.69l-30.34-52.16l30.34-52.16H272.74 M273.32,196.08h-61.84l-30.92,53.16
			l30.92,53.16h61.84l30.92-53.16L273.32,196.08L273.32,196.08z"/>
	</g>
	<g>
		<path d="M266.17,208.39l23.76,40.86l-23.76,40.86h-47.54l-23.76-40.86l23.76-40.86H266.17 M266.74,207.39h-48.69l-24.34,41.86
			l24.34,41.86h48.69l24.34-41.86L266.74,207.39L266.74,207.39z"/>
	</g>
	<g>
		<path d="M259.13,220.48l16.73,28.76L259.13,278h-33.47l-16.73-28.76l16.73-28.76H259.13 M259.71,219.48h-34.62l-17.31,29.76
			L225.09,279h34.62l17.31-29.76L259.71,219.48L259.71,219.48z"/>
	</g>
	<g>
		<path d="M252.21,232.39l9.8,16.85l-9.8,16.85h-19.62l-9.8-16.85l9.8-16.85H252.21 M252.78,231.39h-20.77l-10.38,17.85l10.38,17.85
			h20.77l10.38-17.85L252.78,231.39L252.78,231.39z"/>
	</g>
	<g>
		<path d="M246.39,242.39l3.98,6.85l-3.98,6.85h-7.98l-3.98-6.85l3.98-6.85H246.39 M246.96,241.39h-9.13l-4.56,7.85l4.56,7.85h9.13
			l4.56-7.85L246.96,241.39L246.96,241.39z"/>
	</g>
</g>
<g id="gray">
	<polyline class="st0" points="25.4,249.24 133.9,61.31 350.9,61.31 459.4,249.24 350.9,437.17 133.9,437.17 32.7,261.9 
		141.94,75.24 342.86,75.24 443.32,249.24 342.86,423.24 141.94,423.24 49.76,263.58 149.91,89.04 334.89,89.04 427.38,249.24 
		334.89,409.44 149.91,409.44 65.68,263.56 157.56,102.31 327.23,102.31 412.06,249.24 327.23,396.18 157.56,396.18 81.26,264.02 
		165.69,116.37 319.11,116.37 395.82,249.24 319.11,382.11 165.69,382.11 96.77,262.75 173.18,130.24 311.61,130.24 380.83,249.24 
		311.61,368.24 173.18,368.24 112.86,264.53 181.31,144.21 303.49,144.21 364.58,249.24 303.49,354.27 181.31,354.27 128.65,263.74 
		188.54,156.65 296.25,156.65 350.11,249.24 296.25,341.84 188.54,341.84 143.56,264.5 196.59,170.47 288.21,170.47 334.02,249.24 
		288.21,328.01 196.59,328.01 158.81,263.05 204.41,183.93 280.39,183.93 318.38,249.24 280.39,314.56 204.41,314.56 173.76,261.86 
		211.48,196.08 273.32,196.08 304.23,249.24 273.32,302.4 211.48,302.4 187.51,261.19 218.05,207.39 266.74,207.39 291.09,249.24 
		266.74,291.1 218.05,291.1 200.97,261.72 225.09,219.48 259.71,219.48 277.02,249.24 259.71,279 225.09,279 215.01,261.67 
		232.02,231.39 252.78,231.39 263.16,249.24 252.78,267.09 232.02,267.09 227.91,260.03 237.83,241.39 246.96,241.39 251.53,249.24 
		246.96,257.09 237.83,257.09 	"/>
</g>
<g id="black" class="st1">
	<polyline class="st2" points="25.4,249.24 133.9,61.31 350.9,61.31 459.4,249.24 350.9,437.17 133.9,437.17 32.7,261.9 
		141.94,75.24 342.86,75.24 443.32,249.24 342.86,423.24 141.94,423.24 49.76,263.58 149.91,89.04 334.89,89.04 427.38,249.24 
		334.89,409.44 149.91,409.44 65.68,263.56 157.56,102.31 327.23,102.31 412.06,249.24 327.23,396.18 157.56,396.18 81.26,264.02 
		165.69,116.37 319.11,116.37 395.82,249.24 319.11,382.11 165.69,382.11 96.77,262.75 173.18,130.24 311.61,130.24 380.83,249.24 
		311.61,368.24 173.18,368.24 112.86,264.53 181.31,144.21 303.49,144.21 364.58,249.24 303.49,354.27 181.31,354.27 128.65,263.74 
		188.54,156.65 296.25,156.65 350.11,249.24 296.25,341.84 188.54,341.84 143.56,264.5 196.59,170.47 288.21,170.47 334.02,249.24 
		288.21,328.01 196.59,328.01 158.81,263.05 204.41,183.93 280.39,183.93 318.38,249.24 280.39,314.56 204.41,314.56 173.76,261.86 
		211.48,196.08 273.32,196.08 304.23,249.24 273.32,302.4 211.48,302.4 187.51,261.19 218.05,207.39 266.74,207.39 291.09,249.24 
		266.74,291.1 218.05,291.1 200.97,261.72 225.09,219.48 259.71,219.48 277.02,249.24 259.71,279 225.09,279 215.01,261.67 
		232.02,231.39 252.78,231.39 263.16,249.24 252.78,267.09 232.02,267.09 227.91,260.03 237.83,241.39 246.96,241.39 251.53,249.24 
		246.96,257.09 237.83,257.09 	"/>
</g>
</svg>
