<?xml version="1.0" encoding="utf-8"?>
<!-- Generator: Adobe Illustrator 25.2.3, SVG Export Plug-In . SVG Version: 6.00 Build 0)  -->
<svg version="1.1" id="Layer_1" xmlns="http://www.w3.org/2000/svg" xmlns:xlink="http://www.w3.org/1999/xlink" x="0px" y="0px"
	 viewBox="0 0 500 100" style="enable-background:new 0 0 500 100;" xml:space="preserve">
<style type="text/css">
	.st0{fill:#C1272D;}
	.st1{fill:#ED1C24;}
	.st2{fill:#F15A24;}
	.st3{fill:#FBB03B;}
	.st4{fill:#FCEE21;}
	.st5{fill:#8CC63F;}
	.st6{fill:#009245;}
	.st7{fill:#006837;}
	.st8{fill:#00A99D;}
	.st9{fill:#29ABE2;}
	.st10{fill:#2E3192;}
</style>
<g>
	<path class="st0" d="M10,50.99c0-4.02,0.71-7.64,2.13-10.88c1.42-3.24,3.34-6.01,5.77-8.32c2.43-2.31,5.27-4.08,8.51-5.31
		c3.24-1.23,6.68-1.84,10.33-1.84c2.89,0,5.46,0.28,7.71,0.83c2.25,0.55,4.19,1.18,5.81,1.88c1.87,0.8,3.49,1.68,4.86,2.63
		l-7.97,13.93c-0.81-0.6-1.7-1.18-2.66-1.73c-0.86-0.4-1.89-0.79-3.08-1.17c-1.19-0.38-2.54-0.57-4.06-0.57
		c-1.57,0-3.01,0.28-4.33,0.83c-1.32,0.55-2.47,1.31-3.46,2.26c-0.99,0.95-1.76,2.07-2.32,3.35c-0.56,1.28-0.84,2.65-0.84,4.1
		c0,1.46,0.29,2.82,0.87,4.1c0.58,1.28,1.38,2.4,2.39,3.35c1.01,0.95,2.2,1.71,3.57,2.26c1.37,0.55,2.86,0.83,4.48,0.83
		c1.62,0,3.06-0.2,4.33-0.6c1.26-0.4,2.33-0.85,3.19-1.36c1.01-0.55,1.9-1.2,2.66-1.96l7.97,13.93c-1.37,1.11-2.99,2.08-4.86,2.94
		c-1.62,0.7-3.57,1.36-5.85,1.96c-2.28,0.6-4.89,0.9-7.82,0.9c-3.95,0-7.59-0.64-10.94-1.92c-3.34-1.28-6.23-3.08-8.66-5.38
		c-2.43-2.31-4.33-5.08-5.7-8.32C10.68,58.48,10,54.91,10,50.99z"/>
	<path class="st1" d="M57.77,25.84h17.47c3.24,0,6.24,0.43,9,1.28c2.76,0.85,5.15,2.11,7.18,3.77c2.03,1.66,3.61,3.7,4.75,6.14
		c1.14,2.44,1.71,5.23,1.71,8.4c0,2.51-0.35,4.64-1.06,6.4c-0.71,1.76-1.49,3.21-2.35,4.37c-1.01,1.31-2.15,2.41-3.42,3.31
		l9.49,16.57H81.54l-7.59-12.73v12.73H57.77V25.84z M73.95,50.54h0.84c1.92,0,3.56-0.43,4.9-1.28c1.34-0.85,2.01-2.28,2.01-4.29
		c0-2.01-0.67-3.44-2.01-4.29c-1.34-0.85-2.98-1.28-4.9-1.28h-0.84V50.54z"/>
	<path class="st2" d="M102.05,25.84h29.85v13.18h-13.67v5.57h13.44v12.5h-13.44v5.8h14.2v13.18h-30.38V25.84z"/>
	<path class="st3" d="M152.02,25.84h12.15l19.21,50.23h-15.95l-1.67-4.52h-15.34l-1.67,4.52H132.8L152.02,25.84z M161.51,60.48
		l-3.42-8.81l-3.42,8.81H161.51z"/>
	<path class="st4" d="M191.21,39.02h-9.34V25.84h35.39v13.18h-9.34v37.05h-16.71V39.02z"/>
	<path class="st5" d="M219.91,25.84h17.16v50.23h-17.16V25.84z"/>
	<path class="st6" d="M255.91,25.84l8.58,21.84l8.66-21.84h17.7L271.1,76.07h-13.14l-19.75-50.23H255.91z"/>
	<path class="st7" d="M291.98,25.84h29.85v13.18h-13.67v5.57h13.44v12.5h-13.44v5.8h14.2v13.18h-30.38V25.84z"/>
	<path class="st8" d="M337.93,25.84h17.16l5.85,17.55l5.85-17.55h11.09l5.85,17.55l5.85-17.55h17.16l-16.71,50.23h-12.61
		l-5.09-15.21l-5.09,15.21h-12.61L337.93,25.84z"/>
	<path class="st9" d="M407.88,25.84h29.85v13.18h-13.67v5.57h13.44v12.5h-13.44v5.8h14.2v13.18h-30.38V25.84z"/>
	<path class="st10" d="M442.81,25.84h19.82c2.53,0,4.85,0.29,6.95,0.87c2.1,0.58,3.9,1.43,5.39,2.56c1.49,1.13,2.66,2.54,3.49,4.22
		c0.84,1.68,1.25,3.65,1.25,5.91c0,1.61-0.2,2.97-0.61,4.1c-0.41,1.13-0.84,2.07-1.29,2.82c-0.56,0.9-1.19,1.66-1.9,2.26
		c1.11,0.7,2.13,1.61,3.04,2.71c0.76,0.95,1.46,2.16,2.09,3.62c0.63,1.46,0.95,3.24,0.95,5.35c0,2.41-0.43,4.59-1.29,6.55
		c-0.86,1.96-2.09,3.63-3.68,5.01c-1.59,1.38-3.54,2.44-5.85,3.16c-2.3,0.73-4.87,1.09-7.71,1.09h-20.66V25.84z M464.08,41.12
		c0-2.31-1.27-3.46-3.8-3.46h-1.82v6.93h1.82C462.81,44.59,464.08,43.43,464.08,41.12z M460.28,64.24c3.85,0,5.77-1.46,5.77-4.37
		c0-2.91-1.92-4.37-5.77-4.37h-1.82v8.74H460.28z"/>
</g>
</svg>
