<?xml version="1.0" encoding="utf-8"?>
<!-- Generator: Adobe Illustrator 25.2.3, SVG Export Plug-In . SVG Version: 6.00 Build 0)  -->
<svg version="1.1" id="Layer_1" xmlns="http://www.w3.org/2000/svg" xmlns:xlink="http://www.w3.org/1999/xlink" x="0px" y="0px"
	 viewBox="0 0 1000 1000" style="enable-background:new 0 0 1000 1000;" xml:space="preserve">
<style type="text/css">
	.st0{opacity:0.25;fill:#FFF500;}
	.st1{opacity:0.25;fill:#F2F500;}
	.st2{opacity:0.25;fill:#CDE600;}
	.st3{opacity:0.25;fill:#A9E100;}
	.st4{opacity:0.25;fill:#77E100;}
	.st5{opacity:0.25;fill:#35BD00;}
	.st6{opacity:0.25;fill:#0AA200;}
	.st7{opacity:0.25;fill:#0AB15D;}
	.st8{opacity:0.25;fill:#0AB197;}
	.st9{opacity:0.25;fill:#00CDC5;}
	.st10{opacity:0.25;fill:#00DECF;}
	.st11{opacity:0.25;fill:#00CDD4;}
	.st12{opacity:0.25;fill:#00C5ED;}
	.st13{opacity:0.25;fill:#2DACE1;}
	.st14{opacity:0.25;fill:#0081E2;}
	.st15{opacity:0.25;fill:#0054E3;}
	.st16{opacity:0.25;fill:#3050B3;}
	.st17{opacity:0.25;fill:#264687;}
	.st18{opacity:0.25;fill:#2F357E;}
	.st19{opacity:0.25;fill:#53357E;}
	.st20{opacity:0.25;fill:#72217E;}
	.st21{opacity:0.25;fill:#860062;}
	.st22{opacity:0.25;fill:#95004E;}
	.st23{opacity:0.25;fill:#AC0062;}
	.st24{opacity:0.25;fill:#9D0D42;}
	.st25{opacity:0.25;fill:#C52B00;}
	.st26{opacity:0.25;fill:#D90000;}
	.st27{opacity:0.25;fill:#FF1C00;}
	.st28{opacity:0.25;fill:#FF3800;}
	.st29{opacity:0.25;fill:#FF5600;}
	.st30{opacity:0.25;fill:#FF7900;}
	.st31{opacity:0.25;fill:#FFA400;}
	.st32{opacity:0.25;fill:#FFCA00;}
	.st33{opacity:0.25;fill:#FFDC00;}
	.st34{opacity:0.25;fill:#FFE600;}
</style>
<g>
	<ellipse class="st0" cx="505.32" cy="281.59" rx="112.09" ry="210.47"/>
	
		<ellipse transform="matrix(0.9848 -0.1736 0.1736 0.9848 -42.3316 85.7273)" class="st1" cx="468.77" cy="284.79" rx="112.09" ry="210.47"/>
	
		<ellipse transform="matrix(0.9397 -0.342 0.342 0.9397 -74.5184 165.9554)" class="st2" cx="433.33" cy="294.29" rx="112.09" ry="210.47"/>
	
		<ellipse transform="matrix(0.866 -0.5 0.5 0.866 -101.2942 241.5444)" class="st3" cx="400.08" cy="309.79" rx="112.09" ry="210.47"/>
	
		<ellipse transform="matrix(0.766 -0.6428 0.6428 0.766 -126.0849 315.2499)" class="st4" cx="370.03" cy="330.83" rx="112.09" ry="210.47"/>
	
		<ellipse transform="matrix(0.6428 -0.766 0.766 0.6428 -150.3931 391.03)" class="st5" cx="344.09" cy="356.77" rx="112.09" ry="210.47"/>
	
		<ellipse transform="matrix(0.5 -0.866 0.866 0.5 -173.48 473.1776)" class="st6" cx="323.04" cy="386.83" rx="112.09" ry="210.47"/>
	
		<ellipse transform="matrix(0.342 -0.9397 0.9397 0.342 -192.3885 565.3943)" class="st7" cx="307.54" cy="420.08" rx="112.09" ry="210.47"/>
	
		<ellipse transform="matrix(0.1736 -0.9848 0.9848 0.1736 -202.3046 669.9305)" class="st8" cx="298.04" cy="455.51" rx="112.09" ry="210.47"/>
	<ellipse class="st9" cx="294.85" cy="492.06" rx="210.47" ry="112.09"/>
	
		<ellipse transform="matrix(0.9848 -0.1736 0.1736 0.9848 -87.2641 59.7855)" class="st10" cx="298.04" cy="528.61" rx="210.47" ry="112.09"/>
	
		<ellipse transform="matrix(0.9397 -0.342 0.342 0.9397 -174.3683 139.2007)" class="st11" cx="307.54" cy="564.05" rx="210.47" ry="112.09"/>
	
		<ellipse transform="matrix(0.866 -0.5 0.5 0.866 -255.3684 241.5444)" class="st12" cx="323.04" cy="597.3" rx="210.47" ry="112.09"/>
	
		<ellipse transform="matrix(0.766 -0.6428 0.6428 0.766 -322.7509 367.9464)" class="st13" cx="344.09" cy="627.35" rx="210.47" ry="112.09"/>
	
		<ellipse transform="matrix(0.6428 -0.766 0.766 0.6428 -368.2706 516.8217)" class="st14" cx="370.03" cy="653.29" rx="210.47" ry="112.09"/>
	
		<ellipse transform="matrix(0.5 -0.866 0.866 0.5 -383.9492 683.6469)" class="st15" cx="400.08" cy="674.33" rx="210.47" ry="112.09"/>
	
		<ellipse transform="matrix(0.342 -0.9397 0.9397 0.342 -363.1126 861.0972)" class="st16" cx="433.33" cy="689.84" rx="210.47" ry="112.09"/>
	
		<ellipse transform="matrix(0.1736 -0.9848 0.9848 0.1736 -301.3416 1039.5416)" class="st17" cx="468.77" cy="699.33" rx="210.47" ry="112.09"/>
	<ellipse class="st18" cx="505.32" cy="702.53" rx="112.09" ry="210.47"/>
	
		<ellipse transform="matrix(0.9848 -0.1736 0.1736 0.9848 -113.2058 104.718)" class="st19" cx="541.86" cy="699.33" rx="112.09" ry="210.47"/>
	
		<ellipse transform="matrix(0.9397 -0.342 0.342 0.9397 -201.123 239.0506)" class="st20" cx="577.3" cy="689.84" rx="112.09" ry="210.47"/>
	
		<ellipse transform="matrix(0.866 -0.5 0.5 0.866 -255.3684 395.6186)" class="st21" cx="610.55" cy="674.33" rx="112.09" ry="210.47"/>
	
		<ellipse transform="matrix(0.766 -0.6428 0.6428 0.766 -270.0544 564.6123)" class="st22" cx="640.6" cy="653.29" rx="112.09" ry="210.47"/>
	
		<ellipse transform="matrix(0.6428 -0.766 0.766 0.6428 -242.479 734.6992)" class="st23" cx="666.54" cy="627.35" rx="112.09" ry="210.47"/>
	
		<ellipse transform="matrix(0.5 -0.866 0.866 0.5 -173.48 894.1161)" class="st24" cx="687.59" cy="597.3" rx="112.09" ry="210.47"/>
	
		<ellipse transform="matrix(0.342 -0.9397 0.9397 0.342 -67.4097 1031.8213)" class="st25" cx="703.09" cy="564.05" rx="112.09" ry="210.47"/>
	
		<ellipse transform="matrix(0.1736 -0.9848 0.9848 0.1736 68.2695 1138.5786)" class="st26" cx="712.59" cy="528.61" rx="112.09" ry="210.47"/>
	<ellipse class="st27" cx="715.78" cy="492.06" rx="210.47" ry="112.09"/>
	
		<ellipse transform="matrix(0.9848 -0.1736 0.1736 0.9848 -68.2734 130.6598)" class="st28" cx="712.59" cy="455.51" rx="210.47" ry="112.09"/>
	
		<ellipse transform="matrix(0.9397 -0.342 0.342 0.9397 -101.2731 265.8053)" class="st29" cx="703.09" cy="420.08" rx="210.47" ry="112.09"/>
	
		<ellipse transform="matrix(0.866 -0.5 0.5 0.866 -101.2942 395.6186)" class="st30" cx="687.59" cy="386.83" rx="210.47" ry="112.09"/>
	
		<ellipse transform="matrix(0.766 -0.6428 0.6428 0.766 -73.3885 511.9158)" class="st31" cx="666.54" cy="356.77" rx="210.47" ry="112.09"/>
	
		<ellipse transform="matrix(0.6428 -0.766 0.766 0.6428 -24.6014 608.9075)" class="st32" cx="640.6" cy="330.83" rx="210.47" ry="112.09"/>
	
		<ellipse transform="matrix(0.5 -0.866 0.866 0.5 36.9893 683.6469)" class="st33" cx="610.55" cy="309.79" rx="210.47" ry="112.09"/>
	
		<ellipse transform="matrix(0.342 -0.9397 0.9397 0.342 103.3144 736.1185)" class="st34" cx="577.3" cy="294.29" rx="210.47" ry="112.09"/>
	
		<ellipse transform="matrix(0.1736 -0.9848 0.9848 0.1736 167.3064 768.9675)" class="st34" cx="541.86" cy="284.79" rx="210.47" ry="112.09"/>
</g>
</svg>
