<svg xmlns="http://www.w3.org/2000/svg" viewBox="0 0 841.88 841.88"><defs><style>.cls-1{isolation:isolate;}.cls-2{fill:#fff500;}.cls-10,.cls-11,.cls-12,.cls-13,.cls-14,.cls-15,.cls-16,.cls-17,.cls-18,.cls-19,.cls-2,.cls-20,.cls-21,.cls-22,.cls-23,.cls-24,.cls-25,.cls-26,.cls-27,.cls-28,.cls-29,.cls-3,.cls-30,.cls-31,.cls-32,.cls-33,.cls-34,.cls-35,.cls-36,.cls-4,.cls-5,.cls-6,.cls-7,.cls-8,.cls-9{opacity:0.25;mix-blend-mode:multiply;}.cls-3{fill:#f2f500;}.cls-4{fill:#cde600;}.cls-5{fill:#a9e100;}.cls-6{fill:#77e100;}.cls-7{fill:#35bd00;}.cls-8{fill:#0aa200;}.cls-9{fill:#0ab15d;}.cls-10{fill:#0ab197;}.cls-11{fill:#00cdc5;}.cls-12{fill:#00decf;}.cls-13{fill:#00cdd4;}.cls-14{fill:#00c5ed;}.cls-15{fill:#2dace1;}.cls-16{fill:#0081e2;}.cls-17{fill:#0054e3;}.cls-18{fill:#3050b3;}.cls-19{fill:#264687;}.cls-20{fill:#2f357e;}.cls-21{fill:#53357e;}.cls-22{fill:#72217e;}.cls-23{fill:#860062;}.cls-24{fill:#95004e;}.cls-25{fill:#ac0062;}.cls-26{fill:#9d0d42;}.cls-27{fill:#c52b00;}.cls-28{fill:#d90000;}.cls-29{fill:#ff1c00;}.cls-30{fill:#ff3800;}.cls-31{fill:#ff5600;}.cls-32{fill:#ff7900;}.cls-33{fill:#ffa400;}.cls-34{fill:#ffca00;}.cls-35{fill:#ffdc00;}.cls-36{fill:#ffe600;}</style></defs><g class="cls-1"><g id="Layer_1" data-name="Layer 1"><ellipse class="cls-2" cx="420.94" cy="210.47" rx="112.09" ry="210.47"/><ellipse class="cls-3" cx="468.77" cy="284.79" rx="112.09" ry="210.47" transform="translate(-126.71 14.6) rotate(-10)"/><ellipse class="cls-4" cx="433.33" cy="294.29" rx="112.09" ry="210.47" transform="translate(-158.9 94.83) rotate(-20)"/><ellipse class="cls-5" cx="400.08" cy="309.79" rx="112.09" ry="210.47" transform="translate(-185.67 170.42) rotate(-30)"/><ellipse class="cls-6" cx="370.03" cy="330.83" rx="112.09" ry="210.47" transform="translate(-210.46 244.13) rotate(-40)"/><ellipse class="cls-7" cx="344.09" cy="356.77" rx="112.09" ry="210.47" transform="translate(-234.77 319.91) rotate(-50)"/><ellipse class="cls-8" cx="323.04" cy="386.83" rx="112.09" ry="210.47" transform="translate(-257.86 402.05) rotate(-60)"/><ellipse class="cls-9" cx="307.54" cy="420.08" rx="112.09" ry="210.47" transform="translate(-276.77 494.27) rotate(-70)"/><ellipse class="cls-10" cx="298.04" cy="455.51" rx="112.09" ry="210.47" transform="translate(-286.68 598.81) rotate(-80)"/><ellipse class="cls-11" cx="210.47" cy="420.94" rx="210.47" ry="112.09"/><ellipse class="cls-12" cx="298.04" cy="528.61" rx="210.47" ry="112.09" transform="translate(-171.64 -11.34) rotate(-10)"/><ellipse class="cls-13" cx="307.54" cy="564.05" rx="210.47" ry="112.09" transform="translate(-258.75 68.08) rotate(-20)"/><ellipse class="cls-14" cx="323.04" cy="597.3" rx="210.47" ry="112.09" transform="translate(-339.75 170.42) rotate(-30)"/><ellipse class="cls-15" cx="344.09" cy="627.35" rx="210.47" ry="112.09" transform="translate(-407.13 296.82) rotate(-40)"/><ellipse class="cls-16" cx="370.03" cy="653.29" rx="210.47" ry="112.09" transform="translate(-452.65 445.7) rotate(-50)"/><ellipse class="cls-17" cx="400.08" cy="674.33" rx="210.47" ry="112.09" transform="translate(-468.33 612.52) rotate(-60)"/><ellipse class="cls-18" cx="433.33" cy="689.84" rx="210.47" ry="112.09" transform="translate(-447.49 789.97) rotate(-70)"/><ellipse class="cls-19" cx="468.77" cy="699.33" rx="210.47" ry="112.09" transform="translate(-385.72 968.42) rotate(-80)"/><ellipse class="cls-20" cx="420.94" cy="631.41" rx="112.09" ry="210.47"/><ellipse class="cls-21" cx="541.86" cy="699.33" rx="112.09" ry="210.47" transform="translate(-197.58 33.6) rotate(-10)"/><ellipse class="cls-22" cx="577.3" cy="689.84" rx="112.09" ry="210.47" transform="translate(-285.5 167.93) rotate(-20)"/><ellipse class="cls-23" cx="610.55" cy="674.33" rx="112.09" ry="210.47" transform="translate(-339.75 324.5) rotate(-30)"/><ellipse class="cls-24" cx="640.6" cy="653.29" rx="112.09" ry="210.47" transform="translate(-354.43 493.49) rotate(-40)"/><ellipse class="cls-25" cx="666.54" cy="627.35" rx="112.09" ry="210.47" transform="translate(-326.86 663.58) rotate(-50)"/><ellipse class="cls-26" cx="687.59" cy="597.3" rx="112.09" ry="210.47" transform="translate(-257.86 822.99) rotate(-60)"/><ellipse class="cls-27" cx="703.09" cy="564.05" rx="112.09" ry="210.47" transform="translate(-151.79 960.7) rotate(-70)"/><ellipse class="cls-28" cx="712.59" cy="528.61" rx="112.09" ry="210.47" transform="translate(-16.11 1067.46) rotate(-80)"/><ellipse class="cls-29" cx="631.41" cy="420.94" rx="210.47" ry="112.09"/><ellipse class="cls-30" cx="712.59" cy="455.51" rx="210.47" ry="112.09" transform="translate(-152.65 59.54) rotate(-10)"/><ellipse class="cls-31" cx="703.09" cy="420.08" rx="210.47" ry="112.09" transform="translate(-185.65 194.68) rotate(-20)"/><ellipse class="cls-32" cx="687.59" cy="386.83" rx="210.47" ry="112.09" transform="translate(-185.67 324.5) rotate(-30)"/><ellipse class="cls-33" cx="666.54" cy="356.77" rx="210.47" ry="112.09" transform="translate(-157.77 440.79) rotate(-40)"/><ellipse class="cls-34" cx="640.6" cy="330.83" rx="210.47" ry="112.09" transform="translate(-108.98 537.78) rotate(-50)"/><ellipse class="cls-35" cx="610.55" cy="309.79" rx="210.47" ry="112.09" transform="matrix(0.5, -0.87, 0.87, 0.5, -47.39, 612.52)"/><ellipse class="cls-36" cx="577.3" cy="294.29" rx="210.47" ry="112.09" transform="translate(18.94 665) rotate(-70)"/><ellipse class="cls-36" cx="541.86" cy="284.79" rx="210.47" ry="112.09" transform="translate(82.93 697.84) rotate(-80)"/></g></g></svg>