<svg xmlns="http://www.w3.org/2000/svg" viewBox="0 0 438.04 379.86"><defs><style>.cls-1,.cls-2{fill:none;stroke-miterlimit:10;stroke-width:4px;}.cls-1{stroke:#b3b3b3;}.cls-2{stroke:#000;}</style></defs><g id="gray"><polyline class="cls-1" points="1.73 189.93 110.23 2 327.23 2 435.73 189.93 327.23 377.86 110.23 377.86 9.04 202.58 118.27 15.93 319.19 15.93 419.65 189.93 319.19 363.93 118.27 363.93 26.09 204.26 126.24 29.73 311.22 29.73 403.71 189.93 311.22 350.12 126.24 350.12 42.02 204.24 133.9 42.99 303.56 42.99 388.4 189.93 303.56 336.86 133.9 336.86 57.6 204.71 142.02 57.06 295.44 57.06 372.16 189.93 295.44 322.8 142.02 322.8 73.1 203.43 149.52 70.93 287.95 70.93 357.16 189.93 287.95 308.93 149.52 308.93 89.19 205.21 157.64 84.9 279.82 84.9 340.91 189.93 279.82 294.96 157.64 294.96 104.99 204.43 164.88 97.33 272.59 97.33 326.44 189.93 272.59 282.52 164.88 282.52 119.9 205.19 172.92 111.16 264.55 111.16 310.36 189.93 264.55 268.69 172.92 268.69 135.14 203.74 180.74 124.61 256.72 124.61 294.71 189.93 256.72 255.24 180.74 255.24 150.09 202.55 187.81 136.77 249.65 136.77 280.57 189.93 249.65 243.09 187.81 243.09 163.84 201.87 194.39 148.07 243.08 148.07 267.42 189.93 243.08 231.78 194.39 231.78 177.3 202.4 201.42 160.17 236.04 160.17 253.35 189.93 236.04 219.69 201.42 219.69 191.34 202.36 208.35 172.08 229.12 172.08 239.5 189.93 229.12 207.78 208.35 207.78 204.24 200.72 214.17 182.08 223.3 182.08 227.86 189.93 223.3 197.78 214.17 197.78"/></g><g id="black"><polyline class="cls-2" points="1.73 189.93 110.23 2 327.23 2 435.73 189.93 327.23 377.86 110.23 377.86 9.04 202.58 118.27 15.93 319.19 15.93 419.65 189.93 319.19 363.93 118.27 363.93 26.09 204.26 126.24 29.73 311.22 29.73 403.71 189.93 311.22 350.12 126.24 350.12 42.02 204.24 133.9 42.99 303.56 42.99 388.4 189.93 303.56 336.86 133.9 336.86 57.6 204.71 142.02 57.06 295.44 57.06 372.16 189.93 295.44 322.8 142.02 322.8 73.1 203.43 149.52 70.93 287.95 70.93 357.16 189.93 287.95 308.93 149.52 308.93 89.19 205.21 157.64 84.9 279.82 84.9 340.91 189.93 279.82 294.96 157.64 294.96 104.99 204.43 164.88 97.33 272.59 97.33 326.44 189.93 272.59 282.52 164.88 282.52 119.9 205.19 172.92 111.16 264.55 111.16 310.36 189.93 264.55 268.69 172.92 268.69 135.14 203.74 180.74 124.61 256.72 124.61 294.71 189.93 256.72 255.24 180.74 255.24 150.09 202.55 187.81 136.77 249.65 136.77 280.57 189.93 249.65 243.09 187.81 243.09 163.84 201.87 194.39 148.07 243.08 148.07 267.42 189.93 243.08 231.78 194.39 231.78 177.3 202.4 201.42 160.17 236.04 160.17 253.35 189.93 236.04 219.69 201.42 219.69 191.34 202.36 208.35 172.08 229.12 172.08 239.5 189.93 229.12 207.78 208.35 207.78 204.24 200.72 214.17 182.08 223.3 182.08 227.86 189.93 223.3 197.78 214.17 197.78"/></g></svg>